<?xml version="1.0" encoding="UTF-8"?>
<svg id="Layer_1" data-name="Layer 1" xmlns="http://www.w3.org/2000/svg" viewBox="0 0 113.39 113.39">
  <defs>
    <style>
      .cls-1 {
        fill: #1d1d1b;
      }
    </style>
  </defs>
  <path class="cls-1" d="M45.88,32.21c.58,2.7,3.04,5.44,5.85,6.52.82.32,1.64.47,2.42.47,1.17,0,2.27-.35,3.23-1.04,1.53-1.11,2.34-2.87,2.28-4.96-.09-2.91-1.91-6.21-4.22-7.67-1.35-.86-2.75-1.07-3.98-1.25-.66-.1-1.33-.19-2.12-.48-.38-.17-.95-.41-1.57-.32-.33.05-1.96.43-1.6,2.82.03.64-.08,1.32-.2,2.04-.19,1.14-.4,2.43-.09,3.87h0ZM49.12,28.85c.09-.55.19-1.12.23-1.71.55.13,1.09.21,1.64.29,1.05.16,1.96.29,2.73.79,1.43.9,2.68,3.22,2.73,5.07.03,1.03-.29,1.79-.95,2.27-.7.51-1.59.57-2.63.17-1.78-.68-3.52-2.57-3.87-4.2-.18-.85-.04-1.7.12-2.69Z"/>
  <path class="cls-1" d="M60.05,76.25c-1.35-.86-2.75-1.07-3.98-1.25-.66-.1-1.33-.19-2.12-.48-.38-.17-.95-.39-1.57-.32-.33.05-1.96.43-1.6,2.82.03.64-.08,1.32-.2,2.04-.19,1.14-.4,2.43-.09,3.87h0c.58,2.7,3.03,5.43,5.84,6.52.83.32,1.65.47,2.43.47,1.18,0,2.28-.35,3.23-1.04,1.53-1.11,2.34-2.87,2.27-4.96-.09-2.91-1.91-6.21-4.22-7.67ZM60.12,86.3c-.7.51-1.59.57-2.64.17-1.78-.68-3.52-2.57-3.87-4.19-.18-.86-.04-1.71.12-2.7.09-.55.19-1.11.23-1.71.55.13,1.09.21,1.64.29,1.05.16,1.96.29,2.73.79,1.43.9,2.68,3.22,2.73,5.07.03,1.03-.28,1.79-.95,2.27Z"/>
  <path class="cls-1" d="M66.03,49.25c.08,0,.16,0,.23,0,2.91-.09,6.2-1.9,7.67-4.22.86-1.35,1.06-2.75,1.25-3.98.09-.66.19-1.33.46-2.09.17-.38.43-.95.33-1.61-.05-.33-.41-1.93-2.81-1.59-.66.01-1.32-.08-2.04-.2-1.12-.18-2.41-.39-3.88-.09-2.7.58-5.44,3.04-6.52,5.86-.79,2.05-.59,4.06.56,5.65,1.07,1.48,2.74,2.28,4.73,2.28ZM63.72,42.47c.69-1.79,2.57-3.52,4.2-3.87.84-.2,1.7-.04,2.69.12.55.09,1.11.18,1.7.22-.12.54-.21,1.09-.29,1.64-.16,1.05-.3,1.96-.79,2.74-.9,1.42-3.22,2.68-5.07,2.73-1.02.08-1.8-.29-2.27-.95-.52-.71-.57-1.59-.17-2.63Z"/>
  <path class="cls-1" d="M71.36,64.37c-.09-2.91-1.91-6.21-4.22-7.67-1.35-.86-2.75-1.07-3.98-1.25-.66-.1-1.33-.19-2.12-.48-.38-.17-.95-.4-1.57-.32-.34.05-1.97.43-1.59,2.82.03.64-.08,1.32-.2,2.04-.19,1.14-.41,2.43-.09,3.87h0c.58,2.7,3.03,5.44,5.85,6.52.82.32,1.64.47,2.43.47,1.17,0,2.27-.35,3.23-1.04,1.53-1.11,2.34-2.87,2.27-4.96ZM67.21,66.74c-.71.52-1.59.57-2.64.17-1.78-.69-3.52-2.57-3.87-4.2-.18-.85-.04-1.7.12-2.68.09-.55.18-1.12.23-1.71.54.13,1.09.21,1.63.29,1.05.16,1.96.29,2.73.79,1.43.9,2.68,3.22,2.73,5.07.03,1.03-.28,1.79-.95,2.27Z"/>
  <path class="cls-1" d="M54.02,43.79c-1.13-.18-2.41-.39-3.88-.09-2.7.58-5.43,3.04-6.52,5.86-.78,2.05-.59,4.06.57,5.65,1.07,1.48,2.74,2.28,4.73,2.28.08,0,.15,0,.23,0,2.91-.09,6.2-1.9,7.68-4.22.86-1.35,1.06-2.75,1.25-3.98.09-.66.19-1.33.47-2.11.17-.38.43-.95.31-1.56-.04-.33-.33-1.96-2.84-1.61-.68.02-1.31-.09-2.02-.2ZM54.92,48.8c-.16,1.05-.3,1.96-.79,2.74-.91,1.43-3.23,2.68-5.07,2.73-.99.07-1.79-.29-2.27-.95-.52-.71-.57-1.59-.17-2.63.69-1.79,2.56-3.52,4.2-3.87.28-.06.57-.09.86-.09.58,0,1.17.1,1.83.2.55.09,1.12.18,1.71.23-.12.54-.21,1.09-.29,1.63Z"/>
  <path class="cls-1" d="M41.76,71.84c-.66.02-1.31-.09-2.02-.2-1.13-.19-2.41-.39-3.88-.09-2.7.58-5.43,3.04-6.52,5.86-.78,2.05-.59,4.06.57,5.65,1.07,1.48,2.74,2.28,4.73,2.28.08,0,.16,0,.23,0,2.91-.09,6.2-1.9,7.67-4.22.86-1.35,1.06-2.75,1.25-3.98.09-.66.19-1.33.47-2.12.17-.37.42-.92.32-1.58-.05-.33-.5-1.96-2.84-1.59ZM40.64,76.66c-.16,1.05-.3,1.96-.79,2.74-.9,1.42-3.22,2.68-5.07,2.73-1.05.11-1.79-.29-2.27-.95-.52-.71-.57-1.59-.17-2.63.69-1.79,2.56-3.52,4.2-3.87.28-.06.57-.09.86-.09.58,0,1.17.1,1.83.2.55.09,1.12.18,1.71.22-.12.54-.21,1.09-.29,1.64Z"/>
  <path class="cls-1" d="M87.76,49.36c-.65.01-1.3-.09-2.02-.2-1.12-.18-2.41-.39-3.88-.09-2.7.57-5.44,3.04-6.52,5.85-.79,2.05-.59,4.07.56,5.66,1.07,1.48,2.74,2.28,4.73,2.28.08,0,.16,0,.23,0,2.91-.09,6.2-1.9,7.67-4.21.86-1.36,1.07-2.76,1.25-3.99.1-.66.19-1.32.46-2.08.17-.38.43-.95.33-1.61-.05-.33-.35-1.92-2.84-1.59ZM86.64,54.17c-.16,1.05-.29,1.96-.79,2.75-.9,1.42-3.22,2.68-5.07,2.73-1.02.09-1.8-.29-2.27-.95-.52-.71-.57-1.6-.17-2.64.69-1.79,2.57-3.52,4.2-3.86.28-.06.57-.09.86-.09.58,0,1.17.1,1.83.2.55.09,1.11.18,1.7.22-.12.54-.21,1.09-.29,1.63Z"/>
  <path class="cls-1" d="M36.45,64.09c.86-1.36,1.07-2.76,1.25-3.99.1-.66.19-1.32.46-2.09.17-.38.43-.95.33-1.61-.05-.33-.43-1.91-2.84-1.58-.67.03-1.3-.09-2.01-.2-1.16-.2-2.45-.4-3.88-.09-2.7.57-5.44,3.04-6.52,5.85-.79,2.05-.59,4.07.56,5.66,1.07,1.47,2.74,2.27,4.73,2.27.08,0,.16,0,.24,0,2.91-.09,6.2-1.91,7.66-4.21ZM34.53,59.63c-.16,1.05-.29,1.96-.79,2.75-.9,1.42-3.22,2.67-5.06,2.73-.99,0-1.8-.29-2.28-.95-.52-.71-.57-1.6-.17-2.64.69-1.79,2.57-3.52,4.2-3.86.28-.06.57-.09.86-.09.58,0,1.18.1,1.84.2.55.09,1.11.18,1.7.22-.12.54-.21,1.09-.29,1.63Z"/>
  <path class="cls-1" d="M56.06,65.7c.3-1.87-.38-3.69-1.91-5.12-2.12-2-5.75-3.03-8.4-2.44-1.56.35-2.7,1.19-3.7,1.93-.54.4-1.07.8-1.84,1.16-.38.14-.95.36-1.34.89-.2.27-1.07,1.68.88,3.12.47.43.87.99,1.3,1.58.67.94,1.44,2,2.67,2.8,1.3.84,3.02,1.27,4.78,1.27,1.37,0,2.76-.26,3.97-.8,2.01-.89,3.29-2.46,3.59-4.4ZM51.17,67.18c-1.74.78-4.3.68-5.7-.23-.73-.48-1.23-1.18-1.82-1.99-.33-.45-.66-.92-1.05-1.37.48-.29.92-.62,1.37-.95.85-.64,1.59-1.18,2.5-1.38,1.66-.4,4.17.39,5.51,1.64.76.71,1.07,1.48.95,2.29-.14.86-.73,1.53-1.74,1.98Z"/>
  <path class="cls-1" d="M75.57,67.86c-1.89-.3-3.69.38-5.12,1.9-1.99,2.12-3.04,5.73-2.45,8.41.35,1.56,1.2,2.7,1.94,3.7.4.54.8,1.07,1.15,1.81.15.39.37.98.91,1.36.13.1.55.37,1.12.37s1.29-.27,2.01-1.26c.43-.46.98-.86,1.55-1.27.95-.68,2.01-1.44,2.81-2.68,1.5-2.31,1.7-5.98.48-8.74-.9-2.02-2.46-3.29-4.41-3.6ZM76.81,78.47c-.48.73-1.17,1.23-1.99,1.82-.45.32-.91.66-1.36,1.04-.29-.47-.62-.91-.95-1.36-.63-.86-1.18-1.59-1.38-2.49-.37-1.65.39-4.18,1.65-5.52.6-.64,1.25-.96,1.93-.96.12,0,.24.01.36.03.86.14,1.53.73,1.98,1.74.78,1.75.67,4.3-.23,5.7Z"/>
  <path class="cls-1" d="M31.44,49.05c.63.11,1.2.32,1.77.52.97.34,2.05.72,3.34.72.33,0,.66-.02,1.02-.08,2.42-.38,5.06-2.24,6.27-4.42.88-1.58,1.01-3.28.38-4.79-.61-1.43-1.74-2.46-3.28-2.96-2.44-.77-5.32-.07-7.09.99-2.21,1.34-2.84,3.04-3.38,4.55-.23.62-.46,1.28-.9,2.01-1.01,1.42-.3,2.43.06,2.8.53.54,1.23.6,1.82.65ZM33.46,44.68c.47-1.3.79-2.16,2.03-2.91,1.1-.67,3.02-1.14,4.45-.68.64.21,1.08.59,1.31,1.16.26.61.19,1.26-.21,1.99-.83,1.48-2.71,2.62-3.98,2.82-.95.15-1.77-.13-2.8-.5-.45-.16-.9-.32-1.37-.45.22-.48.39-.96.56-1.42Z"/>
</svg>