<?xml version="1.0" encoding="UTF-8"?>
<svg id="Layer_1" data-name="Layer 1" xmlns="http://www.w3.org/2000/svg" viewBox="0 0 113.39 113.39">
  <defs>
    <style>
      .cls-1 {
        fill: #1d1d1b;
      }
    </style>
  </defs>
  <path class="cls-1" d="M85.28,37.59c-.04-.16.03-.33-.06-.47l-13.05-19.82-.05-9.02c0-.51-.25-.98-.66-1.29-.41-.3-.95-.38-1.42-.23l-30.06,9.42c-.67.21-1.12.83-1.12,1.53l.03,8.77-10.4,9.27c-.34.3-.54.74-.54,1.2v58.9c0,.65.4,1.24,1,1.48l25.09,10.2c.2.08.4.12.6.12.16,0,.32-.03.48-.07l29.25-9.14c.67-.21,1.12-.83,1.12-1.53v-58.9c0-.16-.16-.26-.21-.41ZM40.22,29.58l9.95,14.03-17.63-7.17,7.69-6.86ZM81.38,37.11l-26.11,8.16-12.2-17.21,26.83-8.39,11.48,17.44ZM68.94,10.47l.03,6.15-26.88,8.41-.02-6.13,26.88-8.42ZM31.16,39.33l21.88,8.9v55.45l-21.88-8.9v-55.45ZM56.24,103.88v-55.55l2.79-.87,23.26-7.27v55.55l-26.05,8.14Z"/>
  <path class="cls-1" d="M94.78,102.78c-.41,0-.82-.16-1.13-.47L17.48,26.15c-.62-.62-.62-1.64,0-2.27s1.64-.62,2.27,0l76.17,76.16c.62.62.62,1.64,0,2.27-.31.31-.73.47-1.13.47Z"/>
</svg>