<?xml version="1.0" encoding="UTF-8"?>
<svg id="Layer_1" data-name="Layer 1" xmlns="http://www.w3.org/2000/svg" viewBox="0 0 113.39 113.39">
  <defs>
    <style>
      .cls-1 {
        fill: #1d1d1b;
      }
    </style>
  </defs>
  <path class="cls-1" d="M97.59,44.57c-.07-.1-.14-.21-.21-.3.02-.16.02-.32.02-.47.09-.59-.1-1.57-.57-2.44l-.22-.41-.54-.61c-.07-.07-.13-.13-.21-.19-.19-.76-.59-1.48-1.2-2.09-.45-.45-.99-.82-1.61-1.09-.47-.2-.95-.36-1.44-.47-.13-.13-.26-.25-.41-.35.02-.04.03-.09.04-.13,1.16-.34,2.34-.94,3.3-2.05.75-.86,1.23-2.03,1.3-3.23.39-.25.77-.54,1.13-.89.63-.61,2.64-2.81,2.06-5.61-.17-.83-.54-1.59-1.07-2.22.5-1.98.08-3.94-1.3-5.31-.97-.97-2.3-1.5-3.74-1.5-.52,0-1.05.07-1.58.2-.64-.53-1.4-.9-2.22-1.07l-.32-.07-.67-.03h0c-2.29,0-3.99,1.51-4.62,2.16-.35.36-.64.74-.9,1.14-1.17.07-2.36.54-3.22,1.3-1.13.98-1.73,2.18-2.06,3.35-.03,0-.06.02-.09.03-.12-.16-.25-.3-.38-.44-.11-.48-.26-.96-.46-1.41-.27-.62-.65-1.18-1.1-1.63-.59-.59-1.31-1-2.08-1.2-.06-.07-.12-.13-.19-.2l-.3-.31-.65-.42c-.79-.43-1.58-.63-2.37-.63h-.18l-.34.03s-.04,0-.06,0c-.01,0-.03,0-.04,0-.06-.04-.11-.08-.17-.12-.84-.51-1.5-.8-2.16-.98-.64-.15-1.13-.21-1.6-.21h-.12l-.3.02c-1.72.21-3.06,1.09-3.92,2.5-.48.78-.79,1.67-.91,2.64-.04.29-.05.59-.06.9-.25.24-.48.51-.67.82-1.22,1.96-.52,4.57.81,6.16-.19.78-.16,1.61.11,2.4.27.8.74,1.52,1.37,2.16.22.22.45.42.68.6.08.74.35,1.48.81,2.16l.17.26.45.51c1.07,1.07,2.32,1.35,2.73,1.45.02,0,.03,0,.05.01.04.34-.09.83-.3,1.37-2.21-1.07-4.64-1.76-7.25-1.98h-.13s-.32-.02-.32-.02c-1.38,0-2.69.52-3.7,1.45-2.01,1.86-7.17,7.89-11.33,12.91-.1.12-.21.25-.32.39h0s-.96,1.15-.96,1.15c-2.84,3.46-5.9,7.25-8.9,11.07-1.62,2.06-3.09,3.97-4.43,5.73l-1.01,1.33c-13.09,17.35-13.36,20.77-13.5,22.61-.13,1.58.45,3.14,1.57,4.26,1.01,1.01,2.41,1.59,3.84,1.59h.12l.3-.02c1.31-.1,3.71-.29,12.44-6.18h0s.3-.2.3-.2c.21-.14.43-.29.65-.44.03-.02.06-.05.09-.07l1.23-.84c4.14-2.89,9.18-6.66,14.97-11.2l2.14-1.68c.22-.17.43-.34.63-.5l.78-.61,2.7-2.14-.02-.02c5-4.03,9.88-8.09,13.71-11.41l.88-.77.47-.4c2.1-1.85,3.52-3.17,4.26-3.97,1.04-1.11,1.56-2.63,1.43-4.15-.22-2.62-.91-5.05-1.99-7.27.36-.14.75-.25,1.14-.25.09,0,.17,0,.25.01.09.41.38,1.66,1.45,2.73l.22.22.54.41c.68.46,1.42.73,2.16.81.18.23.38.46.6.68.64.64,1.37,1.1,2.16,1.37l.5.17.88.06c.35,0,.69-.04,1.02-.12.85.71,2.29,1.44,3.85,1.44.84,0,1.63-.22,2.3-.64.28-.18.56-.4.81-.67.31,0,.61-.02.91-.06.96-.12,1.86-.43,2.65-.92,1.39-.85,2.27-2.19,2.47-3.77.06-.75,0-1.37-.15-2.06-.2-.77-.49-1.43-.92-2.14ZM72.95,56.51c-.67.72-2.07,2.02-4,3.72-.98.85,0,0-1.36,1.19-1.75,1.52-3.88,3.32-6.16,5.22-.25-1.99-.72-3.94-1.64-5.72-.4-.8-1.38-1.1-2.16-.69-.78.4-1.09,1.37-.69,2.15,1.01,1.97,1.52,4.1,1.52,6.33,0,.11.09.18.12.28-2.32,1.91-4.75,3.88-7.28,5.9-.9.71-1.2.94-1.19.94s1.06-.83,1.06-.83-.31.25-1.27,1.01c-.71.56-1.41,1.12-2.12,1.67-1.69,1.33-3.26,2.54-4.75,3.68-.2-1.51-.56-2.99-1.26-4.34-.41-.79-1.38-1.09-2.16-.69-.78.4-1.09,1.37-.69,2.15.73,1.43,1.1,2.97,1.1,4.59,0,.17.13.27.18.43-2.77,2.08-5.2,3.85-7.26,5.29,0,0-.01-.01-.02-.02h0q-.46.31-1.28.92c-8.8,6.03-10.94,6.2-11.82,6.27-.06,0-.12,0-.17,0-.59,0-1.16-.23-1.58-.65-.46-.46-.7-1.1-.65-1.75.07-.86.26-2.94,5.81-11.14,1.31.02,2.6.37,3.7,1.04.27.16.55.23.84.23.54,0,1.06-.27,1.37-.77.46-.75.22-1.74-.53-2.2-1.02-.62-2.16-.99-3.33-1.23,1.42-2.02,3.02-4.22,5.02-6.87.46-.61,1-1.31,1-1.31,1.33-1.75,2.8-3.65,4.4-5.69.3-.39.6-.76.91-1.14.03,0,.06.04.09.04,1.98,0,3.87.46,5.61,1.38.23.12.49.18.74.18.58,0,1.13-.31,1.41-.86.41-.78.11-1.75-.67-2.16-1.54-.81-3.19-1.23-4.88-1.48,1.92-2.4,3.82-4.76,5.64-6.96.78-.94.96-1.17.96-1.17l-.14.17s.1-.12.45-.55c2.09-2.52,3.97-4.73,5.64-6.67.08.01.13.09.22.09,1.74,0,3.45.29,5.07.86.17.06.35.09.53.09.66,0,1.27-.41,1.51-1.07.3-.83-.14-1.75-.98-2.04-1.22-.43-2.5-.69-3.79-.85,1.23-1.37,2.27-2.5,2.84-3.03.41-.38.96-.6,1.52-.6.06,0,.12,0,.18,0,2.14.18,4.13.72,5.94,1.56,0,0,4.65,4.78,5.43,5.64l2.01,1.79c.86,1.82,1.41,3.82,1.58,5.98.05.62-.16,1.24-.59,1.7ZM94.5,49.82c-.4.25-.84.4-1.35.46-.18.02-.36.03-.55.03-.26,0-.53-.02-.8-.06-.31-.04-.63-.11-.94-.22-.13-.05-.25-.1-.38-.16,0,.02,0,.03.01.05.24.93-.06,1.35-.36,1.53-.18.11-.39.16-.62.16-.64,0-1.41-.36-1.83-.73-.13-.11-.26-.24-.39-.37-.46-.46-.87-.98-1.26-1.49-.06.22-.16.42-.28.6-.29.43-.7.66-1.11.66-.12,0-.24-.02-.36-.06-.33-.11-.64-.32-.93-.61-.62-.62-1.05-1.54-1.28-2.36-.23.35-.5.63-.85.73-.09.03-.19.04-.28.04-.26,0-.53-.1-.81-.29-.1-.07-.2-.15-.29-.24-.37-.37-.51-.82-.58-1.17-.14-.62-.32-1.31-.76-1.75-.19-.19-.41-.32-.69-.41,0,0-.01,0-.02,0-.65-.25-1.29-.35-1.91-.35-.41,0-.77.12-1.15.19,9.47-3.45,14.28,1.29,14.48,1.52.32.34.74.51,1.17.51.39,0,.77-.14,1.09-.43.65-.6.69-1.61.09-2.26-.27-.29-5.87-6.13-16.48-2.9l15.21-15.52c.62-.63.61-1.64-.02-2.27-.64-.62-1.65-.62-2.26.02l-14.63,14.93c2.24-9.6-2.94-14.72-3.21-14.97-.66-.61-1.66-.56-2.27.09-.59.65-.55,1.66.09,2.26.06.05,5.29,5.23,1.1,15.44-.07-.05-.13-.12-.21-.17.6-1.29.98-2.94.32-4.69,0,0,0-.01,0-.02-.08-.27-.22-.5-.41-.69-.44-.44-1.13-.62-1.75-.76-.35-.08-.8-.22-1.17-.58-.09-.09-.17-.18-.24-.29-.26-.39-.34-.76-.25-1.1.1-.35.37-.62.73-.85-.82-.23-1.74-.66-2.36-1.28-.29-.29-.5-.61-.61-.93-.18-.52.05-1.08.6-1.46.18-.12.38-.22.6-.28-.51-.39-1.02-.79-1.49-1.26-.13-.13-.25-.26-.37-.39-.5-.58-.99-1.78-.57-2.45.14-.22.4-.44.92-.44.17,0,.38.03.62.09.01,0,.03,0,.04.01-.05-.13-.11-.25-.15-.38-.1-.31-.18-.62-.22-.94-.07-.48-.08-.94-.03-1.36.06-.51.21-.95.46-1.35.35-.58.83-.9,1.44-.98.06,0,.12,0,.18,0,.23,0,.48.03.77.1.36.1.76.27,1.2.54.48.32.89.65,1.17.93.02.02.04.04.06.06.01.02.03.03.04.05.04.07.09.14.13.21,0,0,0,0,0,0,.01-.02.02-.04.04-.06l.03-.03c.14-.18.41-.5.95-.5h0c.05,0,.11,0,.17,0,.26,0,.52.07.77.2.1.06.19.13.27.21.15.15.27.34.35.56.11.25.19.54.26.85.04-.05.08-.11.12-.16.02-.03.05-.05.08-.07.2-.11.41-.17.61-.17.31,0,.61.13.86.39.21.21.34.45.42.62.3.7.44,1.47.41,2.2.07-.02.13-.03.2-.03.18,0,.36.07.5.22.25.25.5.72.5,1.41,0,3.22.87,3.65,1.31,3.65.14,0,.24-.04.26-.06.66-.54.43-1.92.59-2.48.24-.89.75-1.39,1.39-1.39.03,0,.06,0,.08,0,.37.02.77.23,1.12.59.07.07.13.14.19.21.02-.17.03-.34.04-.51.12-1.48.26-3.15,1.44-4.18.33-.29.89-.51,1.42-.51.34,0,.68.09.93.33.01.01.03.03.04.04.23.23.34.49.39.76.32-1.14.71-2.37,1.54-3.23.55-.58,1.45-1.18,2.31-1.18.12,0,.23.01.34.03.37.08.68.24.93.49.47.47.63,1.14.68,1.66.92-.8,1.95-1.22,2.84-1.22.58,0,1.1.18,1.48.56.96.96.66,2.8-.66,4.31.53.04,1.19.21,1.66.68.25.25.42.57.49.93.2.95-.5,2.03-1.15,2.65-.86.83-2.09,1.22-3.23,1.54.26.05.53.16.76.39.01.01.03.03.04.04.59.64.29,1.8-.19,2.35-1.03,1.18-2.71,1.32-4.18,1.44-.17.01-.35.03-.51.04.07.06.14.12.21.19.35.35.56.75.59,1.12.04.68-.48,1.23-1.39,1.48-.05.01-.12.02-.21.02-.31,0-.82-.06-1.34-.06-.96,0-1.95.22-1.83,1.44,0,.02,1.79.45,4.5.76.69.08,1.16.25,1.41.5.2.2.26.44.19.7.06,0,.12,0,.18,0,.68,0,1.38.14,2.03.42.17.07.41.2.62.42.42.42.5.96.22,1.47-.02.03-.04.06-.07.09-.05.04-.1.08-.16.12.31.06.6.15.85.26.21.08.41.2.56.35.08.08.15.17.21.27.16.3.23.63.19.94,0,.54-.33.8-.5.95l-.03.03s-.04.03-.06.04c0,0,0,0,0,0,.07.04.14.08.21.13.02.01.03.02.05.04.02.02.04.04.06.06.28.28.6.69.93,1.17.27.44.45.84.54,1.2.08.37.11.68.09.96-.08.61-.4,1.09-.98,1.44Z"/>
</svg>