<?xml version="1.0" encoding="UTF-8"?>
<svg id="Layer_1" data-name="Layer 1" xmlns="http://www.w3.org/2000/svg" viewBox="0 0 113.39 113.39">
  <defs>
    <style>
      .cls-1 {
        fill: #1d1d1b;
      }
    </style>
  </defs>
  <path class="cls-1" d="M16.05,28.48s-.1.7-.21,1.79c-.02.06-.01.12-.02.18-.86,9.26-2.08,48.89,39.33,54.46C65.73,38.74,16.05,28.48,16.05,28.48ZM27.56,66.72c-7.73-10.33-8.88-23.53-8.77-31.27l31.43,45.18c-9.72-2.29-17.4-6.87-22.65-13.9ZM52.87,78.85l-31.65-45.5c7.24,2.55,19.5,8.25,26.6,19.33,4.75,7.41,6.35,16.23,5.06,26.17Z"/>
  <path class="cls-1" d="M97.78,40.86c0-.97-.04-1.59-.04-1.59,0,0-43.71,4.93-38.24,45.63,35.33-1.49,38.16-34.18,38.27-43.26.07-.28.09-.52,0-.79ZM92.22,43.68l-29.86,35.34c-.16-8.23,1.89-15.35,6.36-21.1,6.65-8.55,17.02-12.51,23.5-14.24ZM84.45,71.11c-4.88,5.4-11.52,8.66-19.63,9.95l29.48-34.88c-.66,6.72-2.83,17.16-9.84,24.93Z"/>
</svg>