<?xml version="1.0" encoding="UTF-8"?>
<svg id="Layer_1" data-name="Layer 1" xmlns="http://www.w3.org/2000/svg" viewBox="0 0 113.39 113.39">
  <defs>
    <style>
      .cls-1 {
        fill: #1d1d1b;
      }
    </style>
  </defs>
  <path class="cls-1" d="M78.71,49.69c1.74-2.3,2.74-4.8,3.72-7.7.29-.85-.34-1.7-1.12-1.97-2.34-.79-4.48-.98-6.77-.82-.07-.37-.14-.75-.21-1.12-.16-.85-1.19-1.33-1.97-1.12-1.74.47-3.4,1.17-4.9,2.16.81-1.5,1.47-3.06,1.75-4.93.52-3.51-.22-6.79-1.71-9.97-.38-.82-1.47-.93-2.19-.57,0,0,0,0,0,0-.8-1.9-1.77-3.64-3.29-5.21-.41-.42-.91-.51-1.39-.4-.62-1.33-1.18-2.68-2.03-3.94-.71-1.06-2.03-.99-2.76,0-.89,1.21-1.62,2.45-2.29,3.74-.46-.06-.94.07-1.33.44-1.58,1.5-2.59,3.18-3.46,5.02-.02-.01-.04-.02-.07-.04-.73-.4-1.78-.21-2.19.57-2.39,4.59-2.71,9.91-.9,14.63-1.37-.91-2.86-1.62-4.47-2.13-.8-.25-1.78.3-1.97,1.12-.08.35-.16.7-.24,1.05-2.31-.26-4.5-.14-6.86.55-.82.24-1.36,1.13-1.12,1.97.87,2.99,1.79,5.53,3.48,7.92-.69.42-1.09,1.15-.7,2,2.59,5.74,8.39,7.97,14,9.84-.47,5.78-.95,11.56-1.42,17.34-.33,4.06-.66,8.12-1,12.18-.13,1.53-.82,3.93-.16,5.42,1.12,2.55,5.5,3.67,7.84,4.06,4.42.73,10.93.2,14.37-3.19,1.31-1.29,1.02-2.15.88-3.92-.3-3.74-.61-7.48-.91-11.22-.56-6.87-1.11-13.74-1.67-20.61,5.38-1.69,10.87-3.69,13.58-9.04.43-.85.14-1.68-.54-2.11ZM65.23,94.41c.05.37-.02.26,0,0h0ZM63.55,58.16c-.63.19-1.23.84-1.17,1.54.41,5.05.82,10.11,1.23,15.16.3,3.74.6,7.47.91,11.21.2,2.49.01,5.45.64,7.88.03.1.02.11.04.19-2.39,1.02-4.29,2.4-7.1,2.67-2.76.27-6.14-.05-8.59-1.5-.79-.47-1.2-1.09-1.32-1.04-.13-1.74.34-3.83.48-5.5.29-3.55.58-7.1.87-10.66.5-6.15,1-12.3,1.51-18.44.06-.72-.54-1.33-1.17-1.54-4.61-1.52-9.45-3.15-12.24-7.21.03-.02.05-.02.08-.04.86-.62,1.07-1.7.32-2.51-1.84-2.02-2.72-4.15-3.48-6.56,1.71-.36,3.33-.5,5.22-.09.82.18,1.77-.24,1.97-1.12.05-.2.09-.4.14-.6,1.14.43,2.25.95,3.12,1.85,1.41,1.46,1.63,3.34,2.66,5,.81,1.3,2.32,2.3,3.82,1.21,2.05-1.49.48-4.8-.38-6.49-2.63-5.13-4.58-9.3-2.41-14.69.97.52,1.97.02,2.34-.96.6-1.58,1.39-2.85,2.38-4.06.81.36,1.8-.07,2.2-1.02.41-.98,1.04-1.79,1.57-2.67.5.91,1.1,1.77,1.48,2.8.37.98,1.3,1.32,2.11,1.01.96,1.28,1.69,2.58,2.24,4.26.33,1,1.34,1.38,2.28.96,1.97,5.5-.24,9.65-3.07,14.66-.94,1.67-2.62,4.92-.57,6.45,1.9,1.43,3.34-.36,4.15-1.85,1.64-3.01,3-4.68,5.79-5.81.04.2.07.4.11.59.17.91,1.18,1.25,1.97,1.12,1.86-.32,3.48-.09,5.14.33-.88,2.41-1.85,4.49-3.8,6.46-.06.06-.03.12-.07.18-.57.56-.74,1.45.07,2.08.13.1.25.14.38.23-2.79,3.72-7.43,5.16-11.81,6.51Z"/>
  <path class="cls-1" d="M58.41,59.94c-.88.05-1.55.82-1.49,1.7l1.89,30.35c.05.85.76,1.5,1.59,1.5.03,0,.06,0,.1,0,.88-.05,1.55-.82,1.49-1.7l-1.89-30.35c-.05-.89-.6-1.52-1.7-1.5Z"/>
  <path class="cls-1" d="M55.02,59.84s-.07,0-.1,0c-.84,0-1.55.65-1.59,1.5l-1.91,30.45c-.05.88.61,1.64,1.49,1.7.04,0,.07,0,.1,0,.84,0,1.55-.65,1.59-1.5l1.91-30.45c.05-.88-.61-1.64-1.49-1.7Z"/>
</svg>