<?xml version="1.0" encoding="UTF-8"?>
<svg id="Layer_1" data-name="Layer 1" xmlns="http://www.w3.org/2000/svg" viewBox="0 0 113.39 113.39">
  <defs>
    <style>
      .cls-1 {
        fill: #1d1d1b;
      }
    </style>
  </defs>
  <path class="cls-1" d="M106.73,54.81c-1.45-5.09-5.08-9.52-9.05-11.22-.11-4.9-2.77-9.87-7.37-13.7-4.93-4.11-11-6.01-16.4-5.09-3.75-4.51-10.09-7.17-17.23-7.17h-.02c-7.02,0-13.27,2.59-17.02,6.97-5.32-.9-11.41.95-16.4,5.01-4.8,3.89-7.62,9.02-7.77,14.09-3.8,1.74-7.26,5.95-8.74,10.85-1.46,4.8-.7,9.35,2.09,12.47,4.71,5.29,15.37,11.38,32.35,18.5.55.34.73.59.73,1.28-.02,1.29-.02,2.54,0,3.87.15,3.16,1.99,4.97,5.26,5.1h19.15c3.2-.13,5.05-1.94,5.2-5.16.02-1.28.02-2.53,0-3.8,0-.7.18-.95.48-1.17,17.23-7.25,27.88-13.34,32.59-18.63,2.77-3.1,3.54-7.44,2.16-12.2ZM88.26,32.34c3.87,3.23,6.15,7.5,6.19,11.53l-34.45,43.52,14.6-59.45c4.34-.7,9.5.93,13.66,4.39ZM56.66,20.82h.02c6.29,0,11.74,2.35,14.85,6.23l-14.84,60.4-14.84-60.41c3.1-3.88,8.54-6.23,14.81-6.23ZM25.25,32.09c4.1-3.34,9.19-4.96,13.46-4.37l14.66,59.68L18.84,43.77l-.16-.32c.24-3.98,2.67-8.2,6.58-11.37ZM45.09,90.57c-.02-1.25-.02-2.46,0-3.73.02-2.61-1.66-3.68-2.45-4.15-16.53-6.96-27.11-12.95-31.44-17.8-2.77-3.12-2.08-7.24-1.41-9.42,1.25-4.1,4.2-7.58,7.23-8.84l36.36,45.94h-6.17c-1.55-.06-2.05-.54-2.12-1.99ZM102.17,64.88c-4.33,4.86-14.91,10.85-31.68,17.93-.55.35-2.23,1.42-2.21,4.04.02,1.25.02,2.46,0,3.66-.06,1.51-.56,1.99-2.05,2.05h-6.23s36.37-45.95,36.37-45.95c3.1,1.3,6.09,4.91,7.29,9.08.61,2.12,1.23,6.15-1.48,9.19Z"/>
</svg>