<?xml version="1.0" encoding="UTF-8"?>
<svg id="Layer_1" data-name="Layer 1" xmlns="http://www.w3.org/2000/svg" viewBox="0 0 113.39 113.39">
  <defs>
    <style>
      .cls-1 {
        fill: #1d1d1b;
      }
    </style>
  </defs>
  <path class="cls-1" d="M24.87,58.09c-2.89,0-5.25-2.35-5.25-5.25s2.35-5.25,5.25-5.25,5.25,2.35,5.25,5.25-2.35,5.25-5.25,5.25ZM24.87,50.59c-1.24,0-2.25,1.01-2.25,2.25s1.01,2.25,2.25,2.25,2.25-1.01,2.25-2.25-1.01-2.25-2.25-2.25Z"/>
  <path class="cls-1" d="M59.91,94.05c-.14,0-.29-.02-.43-.06-7.12-2.14-13.08-5.58-17.26-9.93-.43-.45-.54-1.12-.27-1.68.27-.56.86-.89,1.47-.85,4.18.33,7.88.2,11.31-.39.74-.13,1.46.31,1.69,1.02.98,3.06,2.49,6.11,4.75,9.58.34.53.32,1.21-.06,1.72-.29.38-.74.6-1.2.6ZM47.42,84.69c2.57,2,5.63,3.71,9.07,5.08-1.04-1.88-1.86-3.69-2.51-5.49-2.08.29-4.24.43-6.56.42Z"/>
  <path class="cls-1" d="M55.27,33.63c-.09,0-.18,0-.27-.02-6.9-1.23-11.57-.63-11.62-.62-.62.08-1.23-.23-1.53-.78-.29-.55-.21-1.23.21-1.7,1.02-1.14,2.27-2.17,3.48-3.11,4.54-3.55,9.37-6.31,13.98-7.96.58-.21,1.23-.04,1.64.43.41.47.48,1.13.2,1.68-1.69,3.23-3.59,7.01-4.65,10.98-.18.67-.78,1.11-1.45,1.11ZM47.29,29.84c1.83.03,4.18.18,6.91.6.72-2.33,1.67-4.56,2.67-6.64-3.17,1.52-6.38,3.54-9.46,5.95-.04.03-.07.06-.11.09Z"/>
  <path class="cls-1" d="M38.9,78.99c-.38,0-.77-.15-1.06-.44-.59-.59-.59-1.54,0-2.12,10.42-10.42,10.42-27.38,0-37.8-.59-.59-.59-1.54,0-2.12s1.54-.59,2.12,0c11.59,11.59,11.59,30.45,0,42.04-.29.29-.68.44-1.06.44Z"/>
  <path class="cls-1" d="M46.39,80.5c-14.01,0-27.02-5.76-36.63-16.23-.33-.36-.47-.86-.36-1.34.11-.48.44-.88.9-1.06,1.37-.55,2.22-1.42,2.22-2.27,0-1.32-1.92-2.78-4.69-2.81-.06,0-.11,0-.16,0-.57,0-1.09-.32-1.34-.83-.25-.51-.2-1.12.14-1.57,9.58-12.85,24.14-20.22,39.92-20.22,14.15,0,27.67,6.08,37.16,16.71.21-.26.47-.71.63-.98.21-.36.41-.71.62-.98,5.68-7.72,13.37-11.57,21.09-10.57.33.04.63.19.86.42.94.93.45,2.19-.89,4.86-.76,1.51-1.64,3.08-1.92,3.5-2.55,3.92-6.36,7.18-10.19,8.71-.66.26-1.43.45-2.17.63-.37.09-.74.18-1.07.28.57.28,1.3.61,1.79.83.71.32,1.26.57,1.59.75,6.35,3.52,11.17,9.2,13.24,15.58.15.46.07.96-.22,1.35-.28.39-.73.61-1.21.61h0c-9.14-.05-16.85-3.67-21.15-9.93-.2-.29-.38-.63-.57-.99-.14-.27-.36-.69-.56-.98-9.48,10.52-22.92,16.54-37.01,16.54ZM13.28,63.61c8.89,8.97,20.57,13.88,33.11,13.88,13.48,0,26.33-5.87,35.26-16.1.12-.13.26-.25.41-.33.83-.46,1.56-.38,2.03-.24,1.3.39,1.98,1.68,2.52,2.71.14.26.26.5.38.68,3.39,4.94,9.31,7.99,16.47,8.54-2.13-4.78-6.14-9.1-11.05-11.83h0c-.21-.12-.8-.38-1.36-.64-2.61-1.18-3.31-1.55-3.68-2.19-.39-.68-.48-1.49-.25-2.22.22-.71.71-1.28,1.38-1.6.66-.32,1.48-.52,2.36-.74.64-.16,1.3-.32,1.77-.5,3.28-1.32,6.57-4.15,8.79-7.57.4-.61,1.58-2.8,2.28-4.3-.11,0-.22,0-.33,0-7.91,0-13.45,5.83-16.16,9.51-.15.2-.29.45-.44.71-.58,1-1.29,2.23-2.63,2.55-.5.12-1.28.14-2.16-.42-.13-.08-.26-.18-.36-.3-8.93-10.2-21.77-16.05-35.22-16.05s-26.91,6.15-35.9,16.97c2.97.81,5.04,2.92,5.04,5.46,0,1.55-.81,2.97-2.24,4.03Z"/>
</svg>