<?xml version="1.0" encoding="UTF-8"?>
<svg id="Layer_1" data-name="Layer 1" xmlns="http://www.w3.org/2000/svg" viewBox="0 0 113.39 113.39">
  <defs>
    <style>
      .cls-1 {
        fill: #1d1d1b;
      }
    </style>
  </defs>
  <path class="cls-1" d="M87.31,57.72l.22-.18-.26-.32c-1.2-10.5-6.04-22.06-13.09-30.25-5.53-6.43-11.58-9.83-17.49-9.83s-11.96,3.4-17.49,9.83c-9.42,10.96-14.9,27.92-13.02,40.33,3.23,21.34,17.88,28.95,30.5,28.95s27.27-7.6,30.51-28.95c.45-2.98.46-6.22.11-9.58ZM41.64,29.05c4.9-5.7,10.11-8.71,15.06-8.71s10.16,3.01,15.06,8.71c5.44,6.32,9.46,14.74,11.37,22.97l-3.45-4.33c-.3-.38-.77-.61-1.25-.61h-.02c-.49,0-.95.24-1.25.64l-11.23,14.84-10.23-15.66c-.27-.43-.73-.69-1.24-.72-.54-.03-1,.18-1.32.57l-8.96,10.75-8.05-11.29c-.3-.42-.79-.67-1.3-.67h0c-.52,0-1.01.26-1.3.69l-2.73,3.95c2.06-7.64,5.84-15.28,10.87-21.14ZM84.04,66.82c-2.93,19.34-16.05,26.23-27.34,26.23s-24.41-6.89-27.34-26.23c-.42-2.75-.42-5.75-.1-8.85l5.57-8.03,7.94,11.13c.29.4.75.65,1.24.67.55.1.98-.19,1.29-.57l8.91-10.68,10.3,15.75c.28.44.76.71,1.28.72.02,0,.04,0,.05,0,.5,0,.98-.23,1.27-.64l11.35-15.01,5.7,7.14c.27,2.93.27,5.77-.12,8.37Z"/>
</svg>